<svg xmlns="http://www.w3.org/2000/svg" width="64.719" height="62.134" viewBox="0 0 64.719 62.134">
  <g id="affordable-pricing" transform="translate(-7.473 -9.09)">
    <path id="Path_3" data-name="Path 3" d="M62.773,25.718a5.715,5.715,0,0,0,1.279,1.3,5.706,5.706,0,0,0-1.279,1.3,5.722,5.722,0,0,0-1.279-1.3,5.7,5.7,0,0,0,1.279-1.3Zm-3.806,2.257A3.7,3.7,0,0,1,61.8,31a.982.982,0,0,0,1.938,0,3.705,3.705,0,0,1,2.837-3.025.981.981,0,0,0,0-1.914,3.7,3.7,0,0,1-2.837-3.025.982.982,0,0,0-1.938,0,3.7,3.7,0,0,1-2.837,3.025.982.982,0,0,0,0,1.914ZM16.014,25.718a5.715,5.715,0,0,0,1.279,1.3,5.722,5.722,0,0,0-1.279,1.3,5.722,5.722,0,0,0-1.279-1.3A5.731,5.731,0,0,0,16.014,25.718Zm-3.806,2.257A3.7,3.7,0,0,1,15.044,31a.982.982,0,0,0,1.938,0,3.7,3.7,0,0,1,2.837-3.025.981.981,0,0,0,0-1.914,3.7,3.7,0,0,1-2.837-3.025.982.982,0,0,0-1.938,0,3.7,3.7,0,0,1-2.837,3.025.981.981,0,0,0,0,1.914ZM21,30.925a.982.982,0,0,1,1.334-.382c5.93,3.3,10.686,8.7,14.133,16.055a.981.981,0,1,1-1.776.832c-3.315-7.074-7.669-12.037-13.31-15.172A.98.98,0,0,1,21,30.925ZM32.216,48.994c-2.4-5.588-6.789-8.966-13.037-10.043a.982.982,0,0,0-.333,1.935c5.63.969,9.414,3.874,11.568,8.884a.981.981,0,0,0,1.8-.775ZM12.043,40.96a5.69,5.69,0,0,0-1.279-1.3,5.751,5.751,0,0,0,1.279-1.3,5.735,5.735,0,0,0,1.279,1.3,5.706,5.706,0,0,0-1.279,1.3Zm3.806-.346a.982.982,0,0,0,0-1.915,3.7,3.7,0,0,1-2.837-3.025.982.982,0,0,0-1.938,0A3.7,3.7,0,0,1,8.237,38.7a.982.982,0,0,0,0,1.915,3.7,3.7,0,0,1,2.837,3.026.982.982,0,0,0,1.938,0,3.7,3.7,0,0,1,2.837-3.026ZM43.2,46.6c3.448-7.356,8.2-12.759,14.133-16.055a.981.981,0,1,1,.953,1.715c-5.641,3.136-10,8.1-13.31,15.172A.981.981,0,0,1,43.2,46.6Zm18.416-6.848a.981.981,0,0,0-1.133-.8c-6.247,1.077-10.634,4.455-13.036,10.043a.981.981,0,0,0,1.8.775c2.154-5.01,5.938-7.915,11.567-8.884a.982.982,0,0,0,.8-1.133Zm6,1.208a5.69,5.69,0,0,0-1.279-1.3,5.718,5.718,0,0,0,1.279-1.3,5.735,5.735,0,0,0,1.279,1.3A5.69,5.69,0,0,0,67.616,40.96Zm3.806-2.26a3.7,3.7,0,0,1-2.837-3.025.982.982,0,0,0-1.938,0A3.7,3.7,0,0,1,63.816,38.7a.982.982,0,0,0,0,1.915,3.7,3.7,0,0,1,2.837,3.026.982.982,0,0,0,1.938,0,3.7,3.7,0,0,1,2.837-3.026.982.982,0,0,0,0-1.915Zm-31.6-2.621a.981.981,0,0,1,.981.981v8.988a.981.981,0,1,1-1.962,0V37.06a.983.983,0,0,1,.981-.981Zm3.25-7.466a.24.24,0,1,1-.24-.24.24.24,0,0,1,.24.24Zm-2.572,0a2.332,2.332,0,1,0,2.332-2.331A2.332,2.332,0,0,0,40.5,28.613Zm-3.688-6.1a.24.24,0,1,1-.24.24A.24.24,0,0,1,36.812,22.513Zm0,2.573a2.332,2.332,0,1,0-2.332-2.332A2.332,2.332,0,0,0,36.812,25.086Zm-1.176,4.77a.982.982,0,1,0,1.6,1.14l6.777-9.489a.982.982,0,0,0-1.6-1.139Zm-4.2.742a2.227,2.227,0,0,0,.168,1.481c.291.489.6.489.7.489h15.04c.1,0,.41,0,.7-.489A2.228,2.228,0,0,0,48.22,30.6L46.362,17.657a.828.828,0,0,0-.771-.768H43.684v1.442a.981.981,0,1,1-1.962,0V16.889H37.943v1.442a.981.981,0,1,1-1.962,0V16.889H34.074a.827.827,0,0,0-.771.768L31.445,30.6Zm6.5-17c0-1.385.866-2.554,1.89-2.554s1.889,1.171,1.889,2.554v1.321H37.943V13.6ZM32.312,34.531h15.04a2.735,2.735,0,0,0,2.386-1.448,4.094,4.094,0,0,0,.423-2.762L48.3,17.377a2.773,2.773,0,0,0-2.712-2.45h-1.9V13.6c0-2.49-1.728-4.515-3.851-4.515S35.98,11.116,35.98,13.6v1.321H34.073a2.773,2.773,0,0,0-2.712,2.45L29.5,30.322a4.094,4.094,0,0,0,.423,2.762,2.737,2.737,0,0,0,2.387,1.448ZM63.546,55.2c-1.189.66-3.056,1.875-5.21,3.278C53.643,61.533,45.45,66.878,43,66.744c-5.95-.327-12.1-1.376-18.038-.5V55.864a31.33,31.33,0,0,0,4.754-.562,32.764,32.764,0,0,0,4.978-2.007c3.907-1.771,4.129-1.725,7.83-.962,1.995.411,7.293,1.36,7.359,3.051a2,2,0,0,1-.411,1.238,2.41,2.41,0,0,1-2.077.829l-6.677-1.268a.984.984,0,0,0-.359,0L37.4,56.72a.98.98,0,1,0,.351,1.928l2.775-.5,6.5,1.233a3.59,3.59,0,0,0,.678.065,4.337,4.337,0,0,0,2.807-1.107,1.107,1.107,0,0,0,.255-.1L62.9,51.569a2.322,2.322,0,0,1,2.757.281c.5.664-.334,1.976-2.115,3.353ZM23,68.378a.887.887,0,0,1-.886.885H16.346a.887.887,0,0,1-.886-.885V54.729a.888.888,0,0,1,.886-.887H22.11a.888.888,0,0,1,.886.887V68.378ZM61.731,49.837a4.356,4.356,0,0,1,5.607.763c.62.83,1.61,3.108-2.583,6.312a1.01,1.01,0,0,1-.132.086c-1.115.612-2.983,1.828-5.146,3.237-7.459,4.859-13.638,8.746-16.6,8.6-6.028-.293-12.066-1.423-17.924-.478A2.85,2.85,0,0,1,22.1,71.224H16.346A2.851,2.851,0,0,1,13.5,68.379V54.729a2.852,2.852,0,0,1,2.848-2.849h5.764a2.852,2.852,0,0,1,2.684,1.9,29.589,29.589,0,0,0,4.494-.524,35.062,35.062,0,0,0,4.538-1.864c4.359-1.977,5.047-1.944,9.116-1.107,1.282.262,2.569.505,4,.913,2.109.6,4.9,1.667,5.027,3.995Z" fill="#e40202" fill-rule="evenodd"/>
  </g>
</svg>
