<svg xmlns="http://www.w3.org/2000/svg" width="51.096" height="62.135" viewBox="0 0 51.096 62.135">
  <g id="amazing-deals" transform="translate(-8.891 -0.004)">
    <path id="Path_2" data-name="Path 2" d="M13.546,1.918a.521.521,0,0,0-.373-.259.808.808,0,0,0-.844.549.6.6,0,0,0,.08.449L20.65,15.378a4.518,4.518,0,0,1,1.138-.738Zm5.613,36.64q-.5,0-.994.047L11.032,27.62l6.4-14.175,2.152,3.323a4.569,4.569,0,1,0,3.9-2.533l-2.151-3.32,15.541-.083L58.023,43.388,32.173,60.175,28.1,53.9a10.2,10.2,0,0,0,1.053-2.665l3.073,4.733a.824.824,0,0,0,1.14.242L53.919,42.868a.825.825,0,0,0,.242-1.14L38.943,18.293a.824.824,0,0,0-1.14-.242L17.25,31.4a.825.825,0,0,0-.242,1.14l4.02,6.189a10.334,10.334,0,0,0-1.868-.169Zm4.35.963a10.292,10.292,0,0,1,5.926,9.125l3.728,5.737L52.332,41.934,38.009,19.882,18.838,32.331l4.67,7.191Zm3.58,15.852q-.314.38-.662.728A10.276,10.276,0,1,1,16.41,38.929L9.4,28.139a.825.825,0,0,1-.062-.788L16.366,11.8,11.027,3.556a2.244,2.244,0,0,1-.313-1.69A2.458,2.458,0,0,1,13.37.019a2.12,2.12,0,0,1,1.562,1l5.344,8.253,17.049-.091a.823.823,0,0,1,.694.373L59.854,43.182a.824.824,0,0,1-.242,1.14L32.38,62.006a.824.824,0,0,1-1.14-.242l-4.151-6.392ZM25.257,42.737a8.623,8.623,0,1,0,2.525,6.1,8.623,8.623,0,0,0-2.525-6.1Zm-5.27,12.32v-.965A3.107,3.107,0,0,0,22.264,51.1c0-2.394-1.463-2.738-2.924-3.082-.816-.192-1.631-.383-1.631-1.448a1.45,1.45,0,1,1,2.9,0,.827.827,0,1,0,1.654,0,3.107,3.107,0,0,0-2.277-2.993v-.965a.827.827,0,0,0-1.654,0v.965a3.107,3.107,0,0,0-2.277,2.993c0,2.372,1.453,2.714,2.909,3.057.821.193,1.645.387,1.645,1.473a1.45,1.45,0,0,1-2.9,0,.827.827,0,0,0-1.654,0,3.107,3.107,0,0,0,2.277,2.993v.965a.827.827,0,1,0,1.654,0Zm4.3-39.111a2.914,2.914,0,1,0,1.84,1.264,2.914,2.914,0,0,0-1.84-1.264ZM35.234,50.911l9.71-6.311a.825.825,0,0,0-.9-1.383l-9.711,6.3a.825.825,0,0,0,.9,1.383ZM47.3,43.072l1.011-.657a.825.825,0,0,0-.9-1.382L46.4,41.69a.825.825,0,1,0,.9,1.382ZM35.774,46.323,43.9,41.042a.825.825,0,0,0-.9-1.383l-8.129,5.282a.825.825,0,0,0,.9,1.383Zm.489-9.66-.414-.637a2.8,2.8,0,0,0,.2-3.327h0c-1.181-1.815-2.448-1.36-3.714-.9-.634.227-1.266.455-1.723-.2a.87.87,0,0,0-.057-.087,1.158,1.158,0,0,1,.324-1.527.781.781,0,0,0,.086-.056,1.16,1.16,0,0,1,1.553.367.825.825,0,0,0,1.4-.87l-.024-.037a2.8,2.8,0,0,0-3.113-1.159l-.412-.637a.825.825,0,1,0-1.383.9l.414.637a2.8,2.8,0,0,0-.2,3.328h0c1.169,1.8,2.428,1.345,3.69.892.653-.234,1.3-.469,1.776.253a1.156,1.156,0,1,1-1.939,1.259.825.825,0,1,0-1.383.9,2.8,2.8,0,0,0,3.121,1.171l.414.637a.825.825,0,1,0,1.384-.9Z" fill="#e40202" fill-rule="evenodd"/>
  </g>
</svg>
