<svg xmlns="http://www.w3.org/2000/svg" width="62.111" height="62.132" viewBox="0 0 62.111 62.132">
  <g id="best-services" transform="translate(-1.009 -8)">
    <path id="Path_4" data-name="Path 4" d="M151.957,348.009v4.009a1,1,0,0,0,1,1,2.007,2.007,0,0,1,2,2,1,1,0,0,0,1,1H174a1,1,0,0,0,1-1,2.007,2.007,0,0,1,2-2,1,1,0,0,0,1-1v-4.009a1,1,0,0,0-1-1,2.007,2.007,0,0,1-2-2,1,1,0,0,0-1-1H162.981a1,1,0,0,0,0,2H173.13a4.023,4.023,0,0,0,2.88,2.879v2.259a4.023,4.023,0,0,0-2.88,2.879H156.841a4.023,4.023,0,0,0-2.88-2.879v-2.259a4.023,4.023,0,0,0,2.88-2.879h2.131a1,1,0,0,0,0-2h-3.007a1,1,0,0,0-1,1,2.007,2.007,0,0,1-2,2,1,1,0,0,0-1,1Z" transform="translate(-132.921 -293.908)" fill="#e40202"/>
    <path id="Path_5" data-name="Path 5" d="M191.957,385a1,1,0,0,0,1,1H206.99a1,1,0,0,0,0-2H192.959a1,1,0,0,0-1,1Z" transform="translate(-167.91 -328.897)" fill="#e40202"/>
    <path id="Path_6" data-name="Path 6" d="M164.985,40a13.077,13.077,0,0,0-3.257.41,1,1,0,1,0,.5,1.942,11.029,11.029,0,1,1-3.674,1.721,1,1,0,0,0-1.171-1.627,13.03,13.03,0,1,0,7.6-2.446Z" transform="translate(-132.921 -27.991)" fill="#e40202"/>
    <path id="Path_7" data-name="Path 7" d="M214.2,93.513a.959.959,0,0,0-.781-.66l-3.661-.512-1.631-3.186a1,1,0,0,0-1.708,0l-1.631,3.186-3.661.512A.959.959,0,0,0,200.6,94.5l2.628,2.47-.619,3.476a.96.96,0,0,0,1.378,1.025l3.283-1.664,3.283,1.664a.962.962,0,0,0,1.378-1.027l-.619-3.476,2.628-2.47a.959.959,0,0,0,.257-.989Zm-4.578,2.417a.958.958,0,0,0-.287.867l.372,2.094-2-1.014a.966.966,0,0,0-.867,0l-2,1.014.372-2.094a.958.958,0,0,0-.287-.867l-1.547-1.454,2.171-.3a.959.959,0,0,0,.721-.513l1-1.961,1,1.961a.959.959,0,0,0,.721.513l2.171.3-1.547,1.454Z" transform="translate(-175.204 -70.569)" fill="#e40202"/>
    <path id="Path_8" data-name="Path 8" d="M70.166,16.017a.989.989,0,0,0-.99-.989h-9.02a.99.99,0,0,0,0,1.979h7.932a5.032,5.032,0,0,1-4.925,4.034H55.655a16.922,16.922,0,0,0-1.526-4.034h2.019a.99.99,0,1,0,0-1.979h-3.28a16.978,16.978,0,0,0-27.514,0H9.045a.989.989,0,0,0-.99.989A7,7,0,0,0,11.1,21.789a7.994,7.994,0,0,0,2.98,5.491,8.009,8.009,0,0,0,7.993,7.767h3.28A17.058,17.058,0,0,0,34.9,41.525l-1.519,4.558h-6.3a5.017,5.017,0,0,0-5.011,5.011V64.123h-1a1,1,0,0,0-1,1v4.009a1,1,0,0,0,1,1h28.06a1,1,0,0,0,0-2H22.073v-2H56.148v2H53.141a1,1,0,0,0,0,2H57.15a1,1,0,0,0,1-1V65.125a1,1,0,0,0-1-1h-1V51.094a5.017,5.017,0,0,0-5.011-5.011H44.844l-1.519-4.558a17.058,17.058,0,0,0,9.543-6.479h3.28a8.009,8.009,0,0,0,7.993-7.767,8,8,0,0,0,2.98-5.491,7,7,0,0,0,3.045-5.771Zm-46.074.989a16.924,16.924,0,0,0-1.526,4.034H15.058a5.031,5.031,0,0,1-4.925-4.034ZM13.305,22.789a6.971,6.971,0,0,0,1.753.231H22.2a15.636,15.636,0,0,0,0,4.034H19.067A6.035,6.035,0,0,1,13.3,22.789Zm8.768,10.278a6.03,6.03,0,0,1-5.838-4.561,7.95,7.95,0,0,0,2.831.527h3.5a16.922,16.922,0,0,0,1.526,4.034Zm32.07,18.027V64.123H24.078V51.094a3.01,3.01,0,0,1,3.007-3.007H51.137a3.01,3.01,0,0,1,3.007,3.007ZM42.731,46.083H35.49l1.391-4.172a15.311,15.311,0,0,0,4.459,0Zm-3.62-6.013A15.033,15.033,0,1,1,54.143,25.037,15.033,15.033,0,0,1,39.111,40.07Zm17.037-7H54.129a16.924,16.924,0,0,0,1.526-4.034h3.5a7.947,7.947,0,0,0,2.831-.527,6.03,6.03,0,0,1-5.838,4.558Zm3.007-6.013H56.017a15.636,15.636,0,0,0,0-4.034h7.146a6.971,6.971,0,0,0,1.753-.231,6.035,6.035,0,0,1-5.762,4.265Z" transform="translate(-7.046)" fill="#e40202"/>
  </g>
</svg>
