<svg xmlns="http://www.w3.org/2000/svg" width="38.318" height="38.028" viewBox="0 0 38.318 38.028">
  <g id="qotes-icon" transform="translate(-4.733 -0.833)">
    <path id="Path_9" data-name="Path 9" d="M43.528,29.444c-.973-.1-3.117-.1-3.117-1.46,0-1.849,2.727-4.285,7.108-6.912,1.363-.876,4.187-2.234,4.187-4.091,0-1.46-1.07-2.533-3.311-2.234-2.143.292-5.454,1.753-9.835,5.452C33.983,23.981,29.7,30.318,29.7,36.552c0,6.328,4.285,12.66,11.2,12.66a10.06,10.06,0,0,0,10.321-9.938C51.219,34.9,48.2,29.832,43.528,29.444Z" transform="translate(-8.656 -10.354)" fill="#e40202"/>
    <path id="Path_10" data-name="Path 10" d="M32.977,27.379a6.873,6.873,0,0,0-2.624-.77c-.972-.1-3.117-.1-3.117-1.46,0-1.849,2.727-4.285,7.108-6.912,1.363-.876,4.187-2.234,4.187-4.091,0-1.46-1.07-2.533-3.311-2.234-2.143.292-5.454,1.753-9.835,5.452-4.577,3.8-8.861,10.127-8.861,16.359,0,6.328,4.285,12.66,11.2,12.66A10.77,10.77,0,0,0,32.3,45.369a16.966,16.966,0,0,1-2.091-8.136,20.618,20.618,0,0,1,2.771-9.854Z" transform="translate(-11.792 -11.029)" fill="#e40202"/>
  </g>
</svg>
