<svg xmlns="http://www.w3.org/2000/svg" width="55.961" height="62.153" viewBox="0 0 55.961 62.153">
  <g id="satisfaction" transform="translate(-5.869 -0.983)">
    <path id="Path_1" data-name="Path 1" d="M61.83,22.546A21.546,21.546,0,0,1,51.1,41.186a.972.972,0,0,1-.973-1.682,19.6,19.6,0,1,0-26.5-6.645.972.972,0,1,1-1.652,1.023A21.546,21.546,0,1,1,61.83,22.546ZM47.858,45.459a3.749,3.749,0,0,1,0,5.567,3.754,3.754,0,0,1-1.046,6.24,3.754,3.754,0,0,1-3.1,5.87H26.081a5.671,5.671,0,0,1-4.621-2.4H18.772v.191a.972.972,0,0,1-.972.972H6.841a.972.972,0,0,1,0-1.944h9.988V43.318H6.841a.972.972,0,1,1,0-1.944H17.8a.972.972,0,0,1,.972.972v.191H20.6c.476-2.616,1.877-6.309,3.249-7.745a8.458,8.458,0,0,0,2.433-7,2.42,2.42,0,0,1,1.047-2.375,3.451,3.451,0,0,1,3.55-.058c1.522.846,2.335,2.657,2.231,4.967a19.14,19.14,0,0,1-1.243,6.03,12.856,12.856,0,0,0-.7,2.559h14.17a3.754,3.754,0,0,1,2.516,6.54ZM26.081,61.192h5.667a3.754,3.754,0,0,1,1.817-5.268,3.748,3.748,0,0,1,.586-4.9,3.746,3.746,0,0,1,0-5.567,3.749,3.749,0,0,1-.772-4.6H31.173c.007.058.013.117.022.175.568,4.188.435,7.243-1.976,9.549a.972.972,0,1,1-1.343-1.4c1.609-1.539,1.974-3.6,1.394-7.877a10.074,10.074,0,0,1-.1-1.41h0a11.806,11.806,0,0,1,.868-4.166,17.46,17.46,0,0,0,1.138-5.481c.071-1.57-.368-2.7-1.234-3.182a1.513,1.513,0,0,0-1.506-.037.471.471,0,0,0-.221.5,10.389,10.389,0,0,1-2.954,8.607c-1.008,1.055-2.571,4.871-2.849,7.477a.971.971,0,0,1-.966.869H18.772V58.787h3.222a.973.973,0,0,1,.847.5,3.729,3.729,0,0,0,3.24,1.9Zm19.44-1.812a1.815,1.815,0,0,0-1.811-1.815H35.038a1.813,1.813,0,1,0,0,3.626H43.71a1.814,1.814,0,0,0,1.811-1.811ZM45.341,52H36.668a1.813,1.813,0,1,0,0,3.625H45.34a1.813,1.813,0,0,0,0-3.625Zm0-5.566H36.668a1.811,1.811,0,0,0,0,3.622H45.34a1.811,1.811,0,1,0,0-3.622Zm0-1.943a1.813,1.813,0,0,0,0-3.626H36.668a1.813,1.813,0,0,0,0,3.626ZM33.422,13.343a3.7,3.7,0,0,0-3.7,3.7.972.972,0,0,0,1.944,0,1.754,1.754,0,1,1,3.509,0,.972.972,0,1,0,1.944,0,3.7,3.7,0,0,0-3.7-3.7Zm16.988,3.7a3.7,3.7,0,1,0-7.4,0,.972.972,0,1,0,1.944,0,1.755,1.755,0,0,1,3.509,0,.972.972,0,1,0,1.943,0Zm-15.7,7.326a.972.972,0,0,0-.972.972,6.55,6.55,0,0,0,13.1,0,.972.972,0,1,0-1.944,0,4.606,4.606,0,1,1-9.212,0,.972.972,0,0,0-.974-.977Z" fill="#e40202"/>
  </g>
</svg>
