<svg xmlns="http://www.w3.org/2000/svg" width="48" height="39.269" viewBox="0 0 48 39.269">
  <g id="money-balance" transform="translate(-2.5 -6.865)">
    <path id="Path_1" data-name="Path 1" d="M25.669,35.354l.007,0C25.576,35.3,25.577,35.3,25.669,35.354Z" fill="#214842"/>
    <path id="Path_2" data-name="Path 2" d="M25.949,31.475l0,0h0l18.9-10.983-7.3-4.211s0,.008,0,.012.009.029.009.045l-.01,3.491c-.005,1.906-1.249,3.678-3.5,4.987-4.479,2.6-11.788,2.6-16.293,0-2.3-1.326-3.558-3.12-3.553-5.052,0-.152,0-3.369,0-3.5v-.021L6.908,20.484,25.947,31.476Z" fill="#214842"/>
    <path id="Path_3" data-name="Path 3" d="M48.151,23.871l-1.736-1v.445a.523.523,0,0,1-.26.452c.007,0,.007,0,0,0L26.2,35.357h0a.523.523,0,0,1-.522,0l-.007,0c-3.386-1.921-5.94-3.369-7.851-4.45,1.191.648-.478-.358-12.231-7.145h0a.523.523,0,0,1-.261-.453v-.075L4.171,23.9,26.207,36.62Z" fill="#214842"/>
    <path id="Path_4" data-name="Path 4" d="M26.207,36.62Z" fill="#214842"/>
    <path id="Path_5" data-name="Path 5" d="M18.285,16.916a16.828,16.828,0,0,0,15.245,0c1.558-.906,2.984-2.333,2.982-4.1,0-2.845-3.545-4.757-6.308-5.426-3.79-.96-8.606-.658-11.969,1.3-1.92,1.116-2.977,2.569-2.978,4.091C15.255,14.58,16.7,16,18.285,16.916Zm2.659-6.736a.524.524,0,0,1,.691-.262l1.245.559a3.869,3.869,0,0,1,3.275.111.523.523,0,1,1-.525.9,2.859,2.859,0,0,0-2.512,0c-.488.282-.5.573-.012.856a2.823,2.823,0,0,0,2.519,0,3.871,3.871,0,0,1,3.56,0,1.418,1.418,0,0,1,.656,2.063l.718.322a.523.523,0,1,1-.428.954l-1.248-.56a3.745,3.745,0,0,1-1.491.32,3.613,3.613,0,0,1-1.783-.435.523.523,0,0,1,.526-.9,2.823,2.823,0,0,0,2.519,0c.486-.28.5-.57.006-.855a2.859,2.859,0,0,0-2.512,0,3.879,3.879,0,0,1-3.567,0,1.416,1.416,0,0,1-.654-2.057l-.722-.324A.523.523,0,0,1,20.944,10.18Z" fill="#214842"/>
    <path id="Path_6" data-name="Path 6" d="M18.275,23.905a16.826,16.826,0,0,0,15.244,0c1.919-1.115,2.978-2.566,2.982-4.086l0-.571a8.275,8.275,0,0,1-2.448,2.07c-4.476,2.6-11.786,2.6-16.293,0a8.588,8.588,0,0,1-2.515-2.128l0,.57C15.241,21.3,16.317,22.774,18.275,23.905Z" fill="#214842"/>
    <path id="Path_7" data-name="Path 7" d="M18.275,20.407a16.826,16.826,0,0,0,15.244,0c1.919-1.115,2.978-2.566,2.982-4.085l0-.572a8.722,8.722,0,0,1-2.448,2.071c-4.435,2.577-11.745,2.625-16.294,0a8.47,8.47,0,0,1-2.515-2.128c0,.1.009.472.009.577C15.25,18.081,16.7,19.5,18.275,20.407Z" fill="#214842"/>
    <path id="Path_8" data-name="Path 8" d="M25.423,32.388l-19.043-11-.006,1.616L25.417,34C25.417,34.1,25.423,32.493,25.423,32.388Z" fill="#214842"/>
    <path id="Path_9" data-name="Path 9" d="M45.123,23.15l.242-.14L45.37,21.4l-18.9,10.986-.006,1.608L45.091,23.168l0,0Z" fill="#214842"/>
    <path id="Path_10" data-name="Path 10" d="M3.529,24.741,2.5,31.575,27.363,45.93l-1.626-8.368Z" fill="#214842"/>
    <path id="Path_11" data-name="Path 11" d="M48.82,24.691l-22.031,12.8,1.679,8.641L50.5,33.332ZM39.564,37.82l-9.033,5.25a.5.5,0,0,1-.739-.339l-.819-4.212a.511.511,0,0,1,.24-.529l9.033-5.24a.5.5,0,0,1,.739.339L39.8,37.3A.5.5,0,0,1,39.564,37.82Zm3.694-1.24a.986.986,0,0,1-1.563-.9,2.4,2.4,0,0,1,1.1-1.906.986.986,0,0,1,1.572.885A2.419,2.419,0,0,1,43.258,36.58Zm.067-4.155a.956.956,0,0,1-1.524-.872,2.347,2.347,0,0,1,1.075-1.868.96.96,0,0,1,1.524.872A2.348,2.348,0,0,1,43.325,32.425ZM47.1,34.319a1.036,1.036,0,0,1-1.042.053,1.019,1.019,0,0,1-.473-.928A2.306,2.306,0,0,1,46.653,31.6a.948.948,0,0,1,1.515.858A2.315,2.315,0,0,1,47.1,34.319Zm.065-4.118a.949.949,0,0,1-1.508-.868,2.314,2.314,0,0,1,1.07-1.859.955.955,0,0,1,1.517.868A2.346,2.346,0,0,1,47.164,30.2Z" fill="#214842"/>
    <path id="Path_12" data-name="Path 12" d="M45.159,23.129l0,0,.069-.04Z" fill="#214842"/>
    <path id="Path_13" data-name="Path 13" d="M45.091,23.168l.017-.01.048-.028-.034.02Z" fill="#214842"/>
    <path id="Path_14" data-name="Path 14" d="M24.813,34.859l.049.029Z" fill="#214842"/>
    <path id="Path_15" data-name="Path 15" d="M24.893,34.906l-.023-.014-.007,0Z" fill="#214842"/>
  </g>
</svg>
