<svg xmlns="http://www.w3.org/2000/svg" width="33.998" height="43.23" viewBox="0 0 33.998 43.23">
  <g id="notification" transform="translate(-9.979 -4)">
    <path id="Path_20" data-name="Path 20" d="M49.616,8.4a9.3,9.3,0,0,0-6.125-3.722.736.736,0,0,0-.226,1.456,7.926,7.926,0,0,1,6.593,9.005.736.736,0,0,0,1.456.225,9.307,9.307,0,0,0-1.7-6.964Z" transform="translate(-7.448 -0.153)" fill="#efc360"/>
    <path id="Path_21" data-name="Path 21" d="M42.588,10.556a4.452,4.452,0,0,1,3.705,5.061.736.736,0,0,0,1.454.231A5.93,5.93,0,0,0,42.807,9.1.736.736,0,0,0,42.588,10.556Z" transform="translate(-7.296 -1.161)" fill="#efc360"/>
    <path id="Path_22" data-name="Path 22" d="M12.993,9.271a7.844,7.844,0,0,1,5.163-3.136.737.737,0,0,0-.226-1.456,9.406,9.406,0,0,0-7.823,10.686.737.737,0,0,0,1.455-.225,7.844,7.844,0,0,1,1.43-5.869Z" transform="translate(0 -0.153)" fill="#efc360"/>
    <path id="Path_23" data-name="Path 23" d="M15.614,11.448a5.842,5.842,0,0,0-1.069,4.4A.736.736,0,1,0,16,15.617,4.451,4.451,0,0,1,19.7,10.556.736.736,0,1,0,19.485,9.1a5.837,5.837,0,0,0-3.871,2.348Z" transform="translate(-1.024 -1.161)" fill="#efc360"/>
    <path id="Path_24" data-name="Path 24" d="M41.243,36.168A24.564,24.564,0,0,1,38.8,25.526V21.881a11.216,11.216,0,0,0-22.431,0s0,3.645,0,3.645A26.723,26.723,0,0,1,12.831,38.4a2.357,2.357,0,0,0,1.738,3.336l3.034.486a65.651,65.651,0,0,0,22.991-.486A2.357,2.357,0,0,0,42.333,38.4l-1.09-2.231Z" transform="translate(-0.596 -1.516)" fill="#efc360"/>
    <path id="Path_25" data-name="Path 25" d="M31.066,7.676a12.756,12.756,0,0,1,3.2.405,3.787,3.787,0,0,0-.935-3.137A3.2,3.2,0,0,0,27.87,7.2s0,.884,0,.884a12.755,12.755,0,0,1,3.2-.405Z" transform="translate(-4.08)" fill="#efc360"/>
    <path id="Path_26" data-name="Path 26" d="M30.263,54.413c-1.97,0-3.949-.09-5.914-.28a5.806,5.806,0,0,0,5.921,4.529,5.792,5.792,0,0,0,5.9-4.529c-1.96.19-3.945.277-5.906.28Z" transform="translate(-3.277 -11.432)" fill="#efc360"/>
  </g>
</svg>
