<svg xmlns="http://www.w3.org/2000/svg" width="59.397" height="56.002" viewBox="0 0 59.397 56.002">
  <g id="support" transform="translate(-0.028 -0.713)">
    <ellipse id="Ellipse_1" data-name="Ellipse 1" cx="1.317" cy="1.213" rx="1.317" ry="1.213" transform="translate(32.873 25.018)" fill="#214842"/>
    <path id="Path_16" data-name="Path 16" d="M10.1,14.987a10.376,10.376,0,0,0,4.606,1.029c.345,0,.692-.015,1.039-.047a11.229,11.229,0,0,0,3.446-.858.992.992,0,0,0-.789-1.821,9.122,9.122,0,0,1-2.83.7,8.631,8.631,0,0,1-4.587-.779.99.99,0,1,0-.886,1.771Z" transform="translate(14.104 18.353)" fill="#214842"/>
    <ellipse id="Ellipse_2" data-name="Ellipse 2" cx="1.317" cy="1.213" rx="1.317" ry="1.213" transform="translate(21.775 25.018)" fill="#214842"/>
    <path id="Path_17" data-name="Path 17" d="M12.089,11.594a.993.993,0,0,0,.848-1.8,5.355,5.355,0,0,0-4.093,0,.991.991,0,0,0,.838,1.8A3.42,3.42,0,0,1,12.089,11.594Z" transform="translate(12.204 12.848)" fill="#214842"/>
    <path id="Path_18" data-name="Path 18" d="M17.887,11.117a.992.992,0,0,0-.476-1.32,5.366,5.366,0,0,0-4.093,0,.991.991,0,0,0,.838,1.8,3.427,3.427,0,0,1,2.414,0,1.013,1.013,0,0,0,.422.094A.991.991,0,0,0,17.887,11.117Z" transform="translate(18.828 12.849)" fill="#214842"/>
    <path id="Path_19" data-name="Path 19" d="M59.388,55.448C56.233,44.3,46.826,44.047,44,44.24a8.65,8.65,0,0,0-2.793-3.455A10.719,10.719,0,0,0,47,31.061V27a3.19,3.19,0,0,0,2.342-3.009V19.633a3.187,3.187,0,0,0-2.389-3.016c-.481-8.841-8.5-15.9-18.312-15.9-9.739,0-17.709,6.956-18.3,15.7a3.3,3.3,0,0,0-2.483,3.138v4.512a3.354,3.354,0,0,0,3.418,3.279.992.992,0,0,0,.992-.992,1.25,1.25,0,0,0-.027-.139.86.86,0,0,0,.027-.139V17.45C12.269,9.313,19.612,2.7,28.641,2.7S45.013,9.313,45.013,17.45V31.058c0,8.067-8.566,9.908-11.89,10.317a2,2,0,0,0-1.64-.863H28.778a1.96,1.96,0,0,0-2.009,1.9v.151a1.962,1.962,0,0,0,2.009,1.9h2.706A2.019,2.019,0,0,0,33.3,43.335a25.519,25.519,0,0,0,3.128-.628l-6.708,6.375-8.987-8.536V38.309a14.509,14.509,0,0,0,2.954,1.483.993.993,0,0,0,.665-1.87A11.734,11.734,0,0,1,16.32,27.055V15.319A8.506,8.506,0,0,0,22.8,11.377c2.751,6.125,9.784,9.312,16.588,9.312a21.212,21.212,0,0,0,2.25-.181v9.255c0,4.1-2.386,6.531-7.98,8.141a.993.993,0,0,0,.275,1.947.956.956,0,0,0,.273-.04c4.043-1.161,9.419-3.468,9.419-10.046V19.484a.607.607,0,0,0-.02-.092c0-.04.01-.074,0-.114a1.082,1.082,0,0,0-.057-.149c-.007-.017-.012-.035-.02-.05a.989.989,0,0,0-1.062-.62c-7.8,1.282-17.151-2.366-18.676-10.481,0-.015,0-.03,0-.045a.992.992,0,1,0-1.984,0c0,3.029-2.912,5.492-6.489,5.492a.992.992,0,0,0-.992.992V27.057A13.272,13.272,0,0,0,18.756,36.8V40.42a8.758,8.758,0,0,0-3.3,3.825C12.624,44.054,3.222,44.3.067,55.453a.991.991,0,0,0,.682,1.225,1.029,1.029,0,0,0,.27.037.993.993,0,0,0,.955-.722c2.957-10.456,11.919-9.962,13.686-9.749l9.848,9.535a1.021,1.021,0,0,0,.764.278.983.983,0,0,0,.714-.387l2.739-3.589,2.744,3.584a.991.991,0,0,0,1.478.109l9.846-9.535c1.756-.211,10.726-.707,13.688,9.749a.993.993,0,0,0,.955.722,1.029,1.029,0,0,0,.27-.037A.994.994,0,0,0,59.388,55.448ZM9.846,24.068V19.556a1.228,1.228,0,0,1,.439-.928V25A1.228,1.228,0,0,1,9.846,24.068Zm37.509-.077A1.14,1.14,0,0,1,47,24.8V18.826a1.14,1.14,0,0,1,.357.806ZM26.084,53.575l-8.821-8.543a6.73,6.73,0,0,1,2.371-2.8l8.761,8.32Zm7.281,0-2.312-3.019,8.764-8.32a6.739,6.739,0,0,1,2.369,2.8Z" transform="translate(0)" fill="#214842"/>
  </g>
</svg>
